<svg xmlns="http://www.w3.org/2000/svg" xmlns:xlink="http://www.w3.org/1999/xlink" width="48" height="75" viewBox="0 0 48 75">
  <defs>
    <clipPath id="clip-path">
      <rect id="Rectangle_1" data-name="Rectangle 1" width="48" height="75" fill="none"/>
    </clipPath>
  </defs>
  <g id="Vector_Smart_Object_copy_4" data-name="Vector Smart Object copy 4" transform="translate(-78 -8032)">
    <g id="Vector_Smart_Object_copy_4-2" data-name="Vector Smart Object copy 4" transform="translate(78 8032)">
      <g id="Group_2" data-name="Group 2">
        <g id="Group_1" data-name="Group 1" clip-path="url(#clip-path)">
          <path id="Path_1" data-name="Path 1" d="M44.4,22.96c-2.015-1.418-9.263-4.175-9.372-4.211V10.983a5.166,5.166,0,0,0-.2-1.548c-.568-2.01-2.28-3.608-5.234-4.886C27.13,3.481,10.144,0,7.867,0H7.856A7.541,7.541,0,0,0,2.446,1.906C-.05,4.384-.005,8.336.083,16.209.1,17.934.01,61.934.01,61.934-.05,66.811.1,70.447,2.485,72.823,4.449,74.774,7.1,75,8.931,75c3.608,0,8.735-1.042,16.8-2.743A93.309,93.309,0,0,0,39.1,68.59c3.818-1.449,8.893-3.884,8.893-8.289V28.962c.117-2.223-1.092-4.242-3.594-6m.329,5.9v-.051c-.23,4.01-11.665,7.011-19.68,8.7C6.383,41.444,3.551,41.8,3.29,33.334c0-3.041-.08-6.427-.08-11.272C3.209,7.3,2.391,3.207,7.867,3.208c2.221,0,5.508.673,10.359,1.579,16.51,3.088,14.862,6.42,10.841,9.951l.132-.115-.132.115c-2.749,2.411-3.39,3.537-.447,5,.079.04,3.271,1.357,5.69,2.154,7.776,2.565,10.579,4.9,10.416,6.966" fill="#1c1b3a"/>
        </g>
      </g>
    </g>
    <path id="Color_Overlay" data-name="Color Overlay" d="M80.484,8104.823c-2.389-2.376-2.533-6.012-2.474-10.889,0,0,.092-44,.073-45.725-.09-7.872-.132-11.823,2.362-14.3a7.55,7.55,0,0,1,5.41-1.9h.012c2.277,0,19.261,3.479,21.727,4.547,2.954,1.278,4.665,2.877,5.233,4.885a5.153,5.153,0,0,1,.2,1.55v7.766c.11.035,7.357,2.792,9.373,4.209,2.362,1.665,3.573,3.557,3.6,5.634v.151c0,.073,0,.146-.008.218V8092.3c0,4.405-5.076,6.84-8.893,8.289a93.106,93.106,0,0,1-13.367,3.668c-8.065,1.7-13.192,2.743-16.8,2.743C85.1,8107,82.45,8106.774,80.484,8104.823Zm.724-50.761c0,4.844.081,8.232.081,11.271.26,8.466,3.095,8.11,21.756,4.177,8.016-1.687,19.451-4.688,19.681-8.7v.053c.163-2.067-2.639-4.4-10.415-6.967-2.419-.8-5.611-2.114-5.691-2.154-2.944-1.469-2.3-2.594.448-5.005,4.02-3.53,5.666-6.862-10.842-9.951-4.85-.905-8.138-1.579-10.358-1.579C80.391,8035.208,81.209,8039.3,81.209,8054.062Z" fill="#fff" opacity="0.91"/>
  </g>
</svg>
