<svg xmlns="http://www.w3.org/2000/svg" xmlns:xlink="http://www.w3.org/1999/xlink" width="48" height="75" viewBox="0 0 48 75">
  <defs>
    <clipPath id="clip-path">
      <rect id="Rectangle_6" data-name="Rectangle 6" width="48" height="75" fill="none"/>
    </clipPath>
  </defs>
  <g id="Group_11" data-name="Group 11" clip-path="url(#clip-path)">
    <path id="Path_6" data-name="Path 6" d="M44.4,22.96c-2.015-1.418-9.263-4.175-9.372-4.211V10.983a5.166,5.166,0,0,0-.2-1.548c-.568-2.01-2.28-3.608-5.234-4.886C27.13,3.481,10.144,0,7.867,0H7.856A7.541,7.541,0,0,0,2.446,1.906C-.05,4.384-.005,8.336.083,16.209.1,17.934.01,61.934.01,61.934-.05,66.811.1,70.447,2.485,72.823,4.449,74.774,7.1,75,8.931,75c3.608,0,8.735-1.042,16.8-2.743A93.309,93.309,0,0,0,39.1,68.59c3.818-1.449,8.893-3.884,8.893-8.289V28.962c.117-2.223-1.092-4.242-3.594-6m.329,5.9v-.051c-.23,4.01-11.665,7.011-19.68,8.7C6.383,41.444,3.551,41.8,3.29,33.334c0-3.041-.08-6.427-.08-11.272C3.209,7.3,2.391,3.207,7.867,3.208c2.221,0,5.508.673,10.359,1.579,16.51,3.088,14.862,6.42,10.841,9.951l.132-.115-.132.115c-2.749,2.411-3.39,3.537-.447,5,.079.04,3.271,1.357,5.69,2.154,7.776,2.565,10.579,4.9,10.416,6.966" fill="#1c1b3a"/>
  </g>
</svg>
